<mxfile host="Electron" modified="2023-06-27T12:31:12.875Z" agent="Mozilla/5.0 (Windows NT 10.0; Win64; x64) AppleWebKit/537.36 (KHTML, like Gecko) draw.io/21.5.0 Chrome/112.0.5615.204 Electron/24.5.1 Safari/537.36" etag="9rbdd4cPd6xXtyyNCs-h" version="21.5.0" type="device">
  <diagram name="Page-1" id="QfPkDXDlcWoXiYiYHwYn">
    <mxGraphModel dx="1098" dy="828" grid="1" gridSize="10" guides="1" tooltips="1" connect="1" arrows="1" fold="1" page="1" pageScale="1" pageWidth="827" pageHeight="1169" math="0" shadow="0">
      <root>
        <mxCell id="0" />
        <mxCell id="1" parent="0" />
        <mxCell id="dCndmLCGKy89fYpunGYt-1" value="" style="ellipse;html=1;shape=startState;fillColor=#000000;strokeColor=#ff0000;" vertex="1" parent="1">
          <mxGeometry x="140" y="30" width="30" height="30" as="geometry" />
        </mxCell>
        <mxCell id="dCndmLCGKy89fYpunGYt-2" value="" style="edgeStyle=orthogonalEdgeStyle;html=1;verticalAlign=bottom;endArrow=open;endSize=8;strokeColor=#ff0000;rounded=0;" edge="1" source="dCndmLCGKy89fYpunGYt-1" parent="1">
          <mxGeometry relative="1" as="geometry">
            <mxPoint x="155" y="120" as="targetPoint" />
          </mxGeometry>
        </mxCell>
        <mxCell id="dCndmLCGKy89fYpunGYt-5" value="" style="edgeStyle=orthogonalEdgeStyle;rounded=0;orthogonalLoop=1;jettySize=auto;html=1;" edge="1" parent="1" source="dCndmLCGKy89fYpunGYt-3" target="dCndmLCGKy89fYpunGYt-4">
          <mxGeometry relative="1" as="geometry" />
        </mxCell>
        <mxCell id="dCndmLCGKy89fYpunGYt-3" value="Saisire la somme" style="rounded=0;whiteSpace=wrap;html=1;" vertex="1" parent="1">
          <mxGeometry x="95" y="120" width="120" height="60" as="geometry" />
        </mxCell>
        <mxCell id="dCndmLCGKy89fYpunGYt-7" value="" style="edgeStyle=orthogonalEdgeStyle;rounded=0;orthogonalLoop=1;jettySize=auto;html=1;" edge="1" parent="1" source="dCndmLCGKy89fYpunGYt-4" target="dCndmLCGKy89fYpunGYt-6">
          <mxGeometry relative="1" as="geometry" />
        </mxCell>
        <mxCell id="dCndmLCGKy89fYpunGYt-4" value="Saisire l&#39;interet" style="rounded=0;whiteSpace=wrap;html=1;" vertex="1" parent="1">
          <mxGeometry x="95" y="220" width="120" height="60" as="geometry" />
        </mxCell>
        <mxCell id="dCndmLCGKy89fYpunGYt-9" value="" style="edgeStyle=orthogonalEdgeStyle;rounded=0;orthogonalLoop=1;jettySize=auto;html=1;" edge="1" parent="1" source="dCndmLCGKy89fYpunGYt-6" target="dCndmLCGKy89fYpunGYt-8">
          <mxGeometry relative="1" as="geometry" />
        </mxCell>
        <mxCell id="dCndmLCGKy89fYpunGYt-6" value="Saisir le nombre d&#39;annees" style="rounded=0;whiteSpace=wrap;html=1;" vertex="1" parent="1">
          <mxGeometry x="95" y="320" width="120" height="60" as="geometry" />
        </mxCell>
        <mxCell id="dCndmLCGKy89fYpunGYt-14" value="" style="edgeStyle=orthogonalEdgeStyle;rounded=0;orthogonalLoop=1;jettySize=auto;html=1;" edge="1" parent="1" source="dCndmLCGKy89fYpunGYt-8" target="dCndmLCGKy89fYpunGYt-12">
          <mxGeometry relative="1" as="geometry" />
        </mxCell>
        <mxCell id="dCndmLCGKy89fYpunGYt-8" value="Calculer interet simple&lt;br&gt;Somme" style="rounded=0;whiteSpace=wrap;html=1;" vertex="1" parent="1">
          <mxGeometry x="95" y="420" width="120" height="60" as="geometry" />
        </mxCell>
        <mxCell id="dCndmLCGKy89fYpunGYt-15" value="" style="edgeStyle=orthogonalEdgeStyle;rounded=0;orthogonalLoop=1;jettySize=auto;html=1;" edge="1" parent="1" source="dCndmLCGKy89fYpunGYt-12" target="dCndmLCGKy89fYpunGYt-13">
          <mxGeometry relative="1" as="geometry" />
        </mxCell>
        <mxCell id="dCndmLCGKy89fYpunGYt-12" value="Calculer l&#39;interet composer&lt;br&gt;somme(1 + interet) puissance AnnÃ©es" style="rounded=0;whiteSpace=wrap;html=1;" vertex="1" parent="1">
          <mxGeometry x="95" y="510" width="120" height="60" as="geometry" />
        </mxCell>
        <mxCell id="dCndmLCGKy89fYpunGYt-17" value="" style="edgeStyle=orthogonalEdgeStyle;rounded=0;orthogonalLoop=1;jettySize=auto;html=1;" edge="1" parent="1" source="dCndmLCGKy89fYpunGYt-13" target="dCndmLCGKy89fYpunGYt-16">
          <mxGeometry relative="1" as="geometry" />
        </mxCell>
        <mxCell id="dCndmLCGKy89fYpunGYt-13" value="Afficher ibteret Simple et interet composer" style="rounded=0;whiteSpace=wrap;html=1;" vertex="1" parent="1">
          <mxGeometry x="95" y="610" width="120" height="60" as="geometry" />
        </mxCell>
        <mxCell id="dCndmLCGKy89fYpunGYt-16" value="" style="ellipse;html=1;shape=endState;fillColor=#000000;strokeColor=#ff0000;" vertex="1" parent="1">
          <mxGeometry x="140" y="700" width="30" height="30" as="geometry" />
        </mxCell>
      </root>
    </mxGraphModel>
  </diagram>
</mxfile>
